<?xml version="1.0" encoding="UTF-8"?>
<svg id="Layer_2" data-name="Layer 2" xmlns="http://www.w3.org/2000/svg" viewBox="0 0 297.88 165.6">
  <defs>
    <style>
      .cls-1 {
        fill: #54c8e8;
      }

      .cls-2 {
        fill: #231f20;
      }

      .cls-3 {
        fill: #f4436c;
      }

      .cls-4 {
        fill: #2d1d56;
      }
    </style>
  </defs>
  <g id="Layer_1-2" data-name="Layer 1">
    <g>
      <path class="cls-3" d="M296.3,113.07l-45.47-48.02c-.69-.73-.74-1.87-.1-2.65l21.31-26.13,24.26,76.8Z"/>
      <path class="cls-3" d="M234.91,159.99l-37.04-37.16h19.85c.8,0,1.53.48,1.85,1.22l15.34,35.94Z"/>
      <path class="cls-3" d="M100.01,122.83l-37.04,37.16,15.35-35.94c.32-.74,1.04-1.22,1.85-1.22h19.84Z"/>
      <path class="cls-3" d="M47.05,65.05L1.58,113.07,25.84,36.27l21.31,26.13c.64.78.6,1.92-.1,2.65Z"/>
      <path class="cls-1" d="M245.36,62.6l24.76-30.37L237.99,0h-31.29l-9.45,11.62h19.09c2.23,0,4.04,1.81,4.04,4.04h0s-45.52,0-45.52,0v49.55h41.62c2.23,0,4.04,1.81,4.04,4.04h0s-45.66,0-45.66,0v49.55h45.52c.8,0,1.53.48,1.85,1.22l19.46,45.58,56.19-44.99-52.42-55.36c-.69-.73-.74-1.87-.1-2.65ZM197.03,54.58c-4.41,0-8.09-2.44-9.69-5.88l3.85-2.34c.97,2.34,3.08,3.9,5.88,3.9,2.57,0,4.46-1.33,4.46-3.58,0-5.83-13.04-3.58-13.04-12.72,0-4.96,3.9-7.67,8.22-7.67,3.26,0,6.15,1.52,7.89,3.68l-3.16,2.89c-1.24-1.56-2.9-2.39-4.73-2.39-2.03,0-3.73,1.01-3.73,3.17,0,5.65,13.05,3.26,13.05,13.04,0,4.96-4.04,7.9-9,7.9ZM189.28,108.83v-29.62l14.81,14.81-14.81,14.81Z"/>
      <path class="cls-1" d="M127.19,69.25v49.55h43.64v-49.55h-43.64ZM134.2,101.43l14.81-14.81,14.81,14.81h-29.62Z"/>
      <path class="cls-1" d="M123.16,65.21V15.66h-45.66c0-2.23,1.81-4.04,4.04-4.04h19.09L91.18,0h-31.29L27.76,32.23l24.76,30.37c.64.78.6,1.92-.1,2.65L0,120.61l56.19,44.99,19.46-45.58h0c.32-.74,1.04-1.22,1.85-1.22h45.66v-49.55h-45.66c0-2.23,1.81-4.04,4.04-4.04h41.62ZM101.34,26.29c7.8,0,14.14,6.34,14.14,14.14s-6.34,14.15-14.14,14.15-14.15-6.34-14.15-14.15,6.34-14.14,14.15-14.14ZM108.74,79.21v29.62l-14.81-14.81,14.81-14.81ZM127.19,15.66v49.55h43.64V15.66h-43.64ZM156.91,30.75h-11.3v7.62h9.78v4.13h-9.78v7.62h11.3v4.09h-15.8v-27.55h15.8v4.09Z"/>
      <path class="cls-4" d="M101.34,26.29c-7.81,0-14.15,6.34-14.15,14.14s6.34,14.15,14.15,14.15,14.14-6.34,14.14-14.15-6.34-14.14-14.14-14.14ZM101.34,50.12c-5.42,0-9.69-4.22-9.69-9.69s4.27-9.68,9.69-9.68,9.69,4.22,9.69,9.68-4.23,9.69-9.69,9.69Z"/>
      <path class="cls-1" d="M111.03,40.43c0,5.47-4.23,9.69-9.69,9.69s-9.69-4.22-9.69-9.69,4.27-9.68,9.69-9.68,9.69,4.22,9.69,9.68Z"/>
      <polygon class="cls-4" points="145.61 30.75 145.61 38.37 155.39 38.37 155.39 42.5 145.61 42.5 145.61 50.12 156.91 50.12 156.91 54.21 141.11 54.21 141.11 26.66 156.91 26.66 156.91 30.75 145.61 30.75"/>
      <path class="cls-4" d="M206.03,46.68c0,4.96-4.04,7.9-9,7.9-4.41,0-8.09-2.44-9.69-5.88l3.85-2.34c.97,2.34,3.08,3.9,5.88,3.9,2.57,0,4.46-1.33,4.46-3.58,0-5.83-13.04-3.58-13.04-12.72,0-4.96,3.9-7.67,8.22-7.67,3.26,0,6.15,1.52,7.89,3.68l-3.16,2.89c-1.24-1.56-2.9-2.39-4.73-2.39-2.03,0-3.73,1.01-3.73,3.17,0,5.65,13.05,3.26,13.05,13.04Z"/>
      <polygon class="cls-4" points="108.74 79.21 108.74 108.83 93.93 94.02 108.74 79.21"/>
      <polygon class="cls-4" points="204.09 94.02 189.28 108.83 189.28 79.21 204.09 94.02"/>
      <polygon class="cls-4" points="163.82 101.43 134.2 101.43 149.01 86.62 163.82 101.43"/>
      <rect class="cls-2" x="220.38" y="65.21" width=".14" height="4.04"/>
    </g>
  </g>
</svg>