<?xml version="1.0" encoding="UTF-8"?>
<svg id="Layer_2" xmlns="http://www.w3.org/2000/svg" version="1.1" viewBox="0 0 600 102.3">
  <!-- Generator: Adobe Illustrator 29.5.1, SVG Export Plug-In . SVG Version: 2.1.0 Build 141)  -->
  <defs>
    <style>
      .st0 {
        fill: #69737f;
      }
    </style>
  </defs>
  <g id="layer">
    <g>
      <path class="st0" d="M542.9.3c.2.2.4.3.4.5.5,1.6-1.6,5.5-3.2,6-4.8,1.4-9.7,2.7-14.5,4-3,.8-5.9,1.7-8.8,2.8-1.3.5-1.4.7-.5,1.9,4.3,5.3,8,10.9,10.7,17.2,1.8,4.3,2,8.7,1.6,13.3-.2,1.8-1.3,2.9-2.8,3.7-5.1,2.5-10.6,1.2-14.3-3.9-2.2-2.9-3.3-6.4-4.5-9.8-.5-1.5-1.1-3-1.8-4.7-.8,3.2-4.3,3.3-5.9,5.6,1.5,1,3.9,1,5.5,0,.4-.2.8-.8,1.2-.4.5.4.2,1,0,1.5-.7,1.6-1.5,3.1-2.7,4.3-.9,1-2.1,1.5-3.6,1.3-1.1-.2-2.2,0-3.3-.2-1.7-.2-1.9-.4-1.4-2,1-3,2.2-6,4.3-8.5,1.1-1.3,2.3-2.5,3.7-3.3s.8-.9.8-1.6-.1-1.8.2-2.7c.1-.3.2-.8.6-.9.4,0,.5.4.6.7,1,1.8,1.7,3.8,2.3,5.8.6,1.8,1.2,3.7,1.9,5.5,1.7,4.3,5,6.7,9.4,7.8,2.5.6,5,0,7.2-1.5.6-.4.8-.9.6-1.6-2.1-6.8-5.2-13.1-10.1-18.5-.5-.5-.9-1.1-1.8-.7-.2.1-.6-.1-.9-.2-2.4-.9-4.8-4.5-4.9-7-.1-3.4,1.3-5.6,4.5-6.9,4.2-1.8,8.7-2.5,13.1-3.7,5-1.3,10-2.5,15-3.8.2,0,.3-.2.5-.3h.9v.3h0Z"/>
      <path class="st0" d="M591.2,44.5c-.8.8-1.5,1.7-2.4,2.3-2.1,1.8-4.5,2.7-7.3,2.7s-1.9.4-2.7.2c-5.1-1.4-10,.9-15.1.9s-13.8-.3-20-4c-.7-.4-1.3-.8-1.9-1.3-.8-.6-1.3-.4-1.4.7-1,6.9-5.4,10.9-11.4,13.6-.2,0-.5.2-.7,0-4.9-1-9.6-2.5-13-6.4,0,0-.2-.3-.4-.5.8-.2,1.4-.2,2,0,2.4,1.6,5.1,1.3,7.8,1.2,5.6-.3,9.8-2.9,13-7.3,1.2-1.7,1.9-3.4,1-5.7-.9-2.4-.3-4.9.9-7.1,0-.3.3-.7.7-.6s.4.5.4.8c-.3,5.3,3.5,7,7.5,8.3,6.2,2.1,12.6,2,19,1.6,3-.2,6-.8,9-1.6,2.2-.6,3.7-1.9,4.6-3.9.6-1.3,1.2-2.7,1.8-4,0-.3.2-.9.7-.7.4,0,.4.6.4,1,0,1.6,0,3.1-.7,4.6-1.3,3.5-1.2,3.5,2.4,3.1,2.7-.3,4.6-1.9,5.3-4.6.2-.9.4-1.9.9-2.7,0-.2.2-.5.5-.4s.3.4.3.6c0,1,0,2,0,3,0,1.7,1.8,3.6,3.5,3.7,1.3,0,2.2-1.2,1.8-2.7-.4-1.4-.7-2.9,0-4.3,0-.3.2-.6.3-.8.3-.5.3-1.2,1.1-1.2.7,0,1,.7,1,1.4.4,4.5,0,8.9-2.6,12.8-1.2,1.7-1.6,1.7-3.3.5-.6-.4-1.1-.9-1.6-1.4-.4-.7-.7-1.4-1.2-2"/>
      <path class="st0" d="M.2,51.4h24.8c1,0,1.5,0,1.5,1.3.2,2.5.8,5,2,7.2.3.6.3,1-.4,1.3-7.1,4.1-14.1,8.2-21.2,12.3-.7.4-1,.2-1.4-.4-2.4-4.5-4-9.2-4.9-14.2C.5,58.2.6,57.4,0,56.8v-5.4s.2,0,.2,0Z"/>
      <path class="st0" d="M.2,45.1c.7-1.5.7-3.2,1.1-4.8,1-4,2.5-7.9,4.4-11.5.4-.8.8-.9,1.6-.4,6.8,4,13.7,8,20.6,11.9.7.4,1.1.7.6,1.6-1.1,2.1-1.7,4.3-1.9,6.7-.1,1-.5,1.3-1.5,1.3-7.8,0-15.6,0-23.4,0s-1,0-1.5,0c0,0,0-4.9,0-4.9Z"/>
      <path class="st0" d="M66.8,50.9c-.2,10.8-8.8,19.2-19.4,19s-18.9-8.8-18.7-19.5c.2-10.4,8.9-18.8,19.3-18.7,10.4.2,19,9,18.8,19.2"/>
      <path class="st0" d="M96,49.8h-25.7c-.9,0-1.4,0-1.5-1.2-.2-2.4-.8-4.7-1.9-6.8-.5-1,0-1.2.7-1.6,8.7-5.1,17.5-10.1,26.2-15.2,3-1.7,6-3.5,9-5.2.7-.4,1.2-.4,1.8.2,8.3,8,14.5,17.3,18.2,28.2.3,1.1,0,1.6-1.1,1.6h-25.7Z"/>
      <path class="st0" d="M102.4,18.2c-6.2,3.6-12.4,7.2-18.7,10.8-5.7,3.3-11.3,6.6-17,9.9-.7.4-1.1.5-1.7-.3-1.4-2.1-3.1-3.8-5.2-5.2-.8-.5-1-.9-.5-1.8,5.3-9.1,10.5-18.2,15.8-27.4.3-.6.6-.9,1.4-.6,9.2,3.1,17.8,7.4,25.2,13.8.3.2.7.4.7.8"/>
      <path class="st0" d="M59,.6h1.7c4.2.3,8.3.9,12.3,2,.8.2,1.1.4.6,1.3-5.2,9-10.4,18.1-15.6,27.1-.4.7-.7.9-1.5.5-2.2-1.1-4.6-1.7-7.1-1.8-.9,0-1.2-.4-1.2-1.3V2.1c0-1,.3-1.4,1.3-1.4s1.8-.1,2.7-.1h6.8"/>
      <path class="st0" d="M46.6,15.3v13c0,1,0,1.4-1.3,1.5-2.4.2-4.8.9-6.9,2-.7.4-1,.2-1.4-.4-4.1-7.1-8.3-14.3-12.5-21.4-.4-.7-.3-1,.4-1.4,6.4-3.9,13.2-6.4,20.6-7.4,1-.1,1.1.1,1.1,1v13.1"/>
      <path class="st0" d="M48.2,85.1v-11.8c0-.9.3-1.2,1.2-1.3,2.6,0,5.1-.8,7.4-1.9.7-.3,1-.2,1.3.4,4,6.9,8.1,13.9,12.1,20.8.4.6.4.9-.3,1.3-6.4,3.4-13.3,5.3-20.6,5.6-.9,0-1.1-.2-1.1-1.1v-12"/>
      <path class="st0" d="M82,51.4h11.7c1,0,1.3.2,1.3,1.2-.4,7.1-2.2,13.8-5.5,20.2-.4.7-.7.9-1.5.4-6.8-4-13.6-7.9-20.4-11.8-.9-.5-1-.9-.5-1.7,1.1-2.3,1.7-4.7,1.9-7.2,0-.8.3-1,1.1-1,3.9,0,7.9,0,11.9,0"/>
      <path class="st0" d="M46.6,85.1v11.8c0,1-.2,1.3-1.3,1.2-7-.4-13.6-2.1-19.8-5.3-.9-.5-.9-.9-.5-1.7,4-6.8,7.9-13.7,11.9-20.6.5-.8.8-1,1.7-.6,2.1,1.1,4.3,1.7,6.7,1.9,1,0,1.3.4,1.3,1.4v11.9"/>
      <path class="st0" d="M29.6,62.3c.4,0,.4.3.6.5,1.5,2.2,3.3,4,5.5,5.5.6.4.4.7.2,1.2-4.1,7.1-8.2,14.2-12.3,21.3-.4.6-.7.6-1.2.3-6.1-3.8-11.1-8.8-14.9-14.8-.3-.5-.5-.8.2-1.2,7.2-4.1,14.4-8.3,21.5-12.5.1,0,.2-.2.4-.3"/>
      <path class="st0" d="M65.8,62.2c.3.2.6.3.8.5,6.9,4,13.8,8,20.7,12,.7.4.8.7.3,1.4-3.9,6-8.8,11-14.8,14.8-.7.5-1,.3-1.4-.4-4-6.9-8-13.8-12.1-20.7-.4-.7-.4-1,.3-1.4,2.2-1.5,4-3.3,5.5-5.5.3-.3.5-.5.7-.7"/>
      <path class="st0" d="M36,32.8c0,.4-.2.5-.4.6-2.1,1.5-3.9,3.3-5.4,5.5-.3.5-.6.6-1.1.3-7.1-4.1-14.1-8.2-21.2-12.2-.7-.4-.6-.7-.3-1.3,3.8-6,8.6-11,14.3-15.1.6-.4.9-.4,1.3.3,4.1,7.1,8.3,14.3,12.5,21.4,0,0,.2.3.3.5"/>
      <path class="st0" d="M146.8,33.2c0,1.7.1,3.4,0,5.1-.1,1.9-.2,3.9.2,5.8.8,5,4.8,7.9,9.9,7.4,3.9-.4,7.4-1.4,10.3-4.2.7-.7.9-1.4.7-2.4-1.1-4.9-3.2-9.3-6.2-13.3-.9-1.2-.9-4.7.1-5.8.6-.7,1-.1,1.3.4,3.1,3.6,5.4,7.6,6.7,12.1,1.1,3.9,1.4,7.9.5,12-.1.6-.3,1.1-.7,1.5-4.1,4.8-9.4,6.8-15.5,6.2-3.8-.4-6.1-3.3-7.8-6.6-1.1-2.1-1.1-4.3-1.3-6.5-.2-3-.3-6.1.4-9.1.3-1,.5-1.9,1.4-2.6"/>
      <path class="st0" d="M392.1,52.6c2.3,0,4.3.7,6.2,1.2,1.1.3,1.9.2,2.8-.5,1.7-1.3,3.3-1.9,5.5-.8,1.3.7,2.8.9,4.2,1.3,1.1.4,1.3,1.2.5,2-.7.7-1.5,1.3-2.3,1.9-1,.7-2,.9-3.2.6-1.8-.5-3.7-1-5.4-1.8-1.2-.5-2.2-.4-3.1.4-1.1,1-2.3,1.2-3.8.7-1.6-.5-3.3-.8-5-1.1-1.2-.2-1.2-.8-.5-1.5,1.2-1.3,2.5-2.3,4.1-2.4"/>
      <path class="st0" d="M573.8,20.8c2.2.1,3.9.9,5.8,1.3,1.1.2,2,.1,2.8-.8,2-2.2,4.3-2.6,6.9-1,.9.6,2,.9,3.1,1,.3,0,.6.1.7.4,0,.4-.2.5-.5.6-1.1.8-2.2,1.5-3.3,2.3-.6.5-1.3.3-1.9.2-.5-.1-.9-.2-1.4-.3-2.6-1.1-5-.9-7,1.3-.7.8-1.7.9-2.8.7-2.3-.4-4.6-.7-6.9-.9-1-.1-1.1-.7-.7-1.3,1.5-1.8,2.9-3.5,5.2-3.5"/>
      <path class="st0" d="M399.2,23.2c0-.7.5-.9.9-1.2,2.2-1.8,4.5-3.7,6.8-5.4,1-.8,1.2-1.7.7-2.7-.6-1.2-1.2-2.3-2.6-2.8-1.6-.6-2.9-1.8-3.9-3.2-.2-.3-.5-.7-.5-1.2,0-2,.9-2.7,2.6-1.6,2.5,1.6,5,3.4,5,6.9s.1.9.5,1.3c.7-.5.8-1.3.9-2,.2-1.3.3-2.5.5-3.8.2-1.5,1-2.7,2.1-3.6.7-.6,1.6-.7,2,.3.7,1.4.9,3,.5,4.6-.1.3-.3.7-.6.7-.5.1-.4-.4-.6-.7-.2-.5-.2-1.4-1-1.4s-.8.8-1.1,1.4c-.4.8-.6,1.7-.5,2.6,0,3.4-1.7,5.9-4.1,8.1-2,2-4.7,3-7.6,3.7"/>
      <path class="st0" d="M372.2,8.3c1.5.1,2.7.5,3.9.7,1.5.3,2.7.1,3.8-.8,1.3-1,2.6-1.2,4.1-.7,1.6.5,3.3.8,5,1.2.5.1.8.3.9.7.1.5-.2.7-.6.9-1.2.7-2.4,1.4-3.6,2.1-1,.6-2,0-3-.1-1.1-.1-2.1-.4-3.2-.5-1.3-.2-2.4.1-3.4.9s-2.1,1.1-3.3.9c-1.6-.2-3.3-.6-4.9-.9-.7-.1-.9-.5-.6-.9,1.5-1.6,2.9-3.3,4.9-3.5"/>
      <path class="st0" d="M498.7,11.5c-1.6-.8-3.2-1.4-4.9-1.7-1-.1-.9-.5-.5-1.2.9-1.6,3.6-3,5.4-2.6s3.5,1,5.3,1.6c.8.3.6.8.4,1.4-.1.2-.4.3-.6.4-.7.5-1.9.7-1.8,1.6.1.7,1.4.9,2.1,1.2.8.4,2,.6,2.1,1.4.1,1-1.1,1.5-1.8,2.2-1.4,1.4-2.9,1.6-4.7.7-1-.5-2-.8-3.1-1.1-1.2-.3-.8-.8-.4-1.4.8-.8,1.9-1.3,2.5-2.5"/>
      <path class="st0" d="M490.5,23c-1.5-.6-3.2-.7-4.9-1.1-.9-.2-1.5-.1-2.1.5-2,2.1-4.3,2.4-7,1.3-.7-.3-1.5-.4-2.2-.5-1-.2-1-.8-.4-1.4.8-.9,1.6-1.7,2.6-2.4,1.2-.8,2.4-1,3.8-.4,2.3,1,4.5,1.2,6.4-.7.9-.9,2-.7,3.1-.4,1.7.4,3.4,1.3,5.2,1.4.7,0,1,.5.3,1.2-1.3,1.2-2.7,2.3-4.8,2.5"/>
      <path class="st0" d="M581.5,6c0,.9-1.4,2.3-2.8,2.5-4,.6-8,1.2-12,1.7-2.9.4-5.7.8-8.6,1.4-.3.1-.7.5-1,0-.2-.4,0-.8.3-1,.7-.8,1.7-1.3,2.8-1.5,5.5-1.3,11.1-1.9,16.7-2.8,1.3-.2,2.5-.4,3.8-.7.5,0,.8,0,.8.4"/>
      <path class="st0" d="M194.5,17.2c.2-2.1,1.6-2.8,3.1-3.2,2.7-.7,5.3-1.3,8-1.9,3.3-.8,6.5-1.6,9.8-2.5,1.2-.3,1.1.2.8,1-.2.7-.6,1.2-1.4,1.4-6.7,2-13.5,3.3-20.3,5.2"/>
      <path class="st0" d="M450,21.4c2.4.1,4.6,1,6.8,1.5.9.2.7,1,.1,1.4-1.3.9-2.6,1.7-4,2.5-.4.3-.9.1-1.4,0-2.1-.4-4.3-.9-6.4-1.2-1.1-.2-.9-.7-.4-1.1,1.5-1.5,3-3.1,5.3-3.1"/>
      <path class="st0" d="M465.4,12.2c.4-1.7,1.2-2.7,2.9-3.1,5.1-1.2,10.2-2.1,15.3-3.2.3,0,.8-.4,1,0,.2.4-.1.8-.3,1-.7,1-1.7,1.6-3,1.8-3.9.8-7.8,1.5-11.7,2.2-1.3.4-2.7.8-4.2,1.2"/>
      <path class="st0" d="M580.5,18.7c-2.7-.5-5.2-1-7.7-1.5-.7-.2-.5-.7-.2-1.1,1.2-1.9,3.7-2.9,5.9-2.4,1.9.4,3.9.8,5.8,1.2.7.1,1.1.6.7,1.1-1.3,1.4-3,2.1-4.5,2.7"/>
      <path class="st0" d="M344.9,9.8c-.7.1-.8-.2-.6-.8.5-1.1,1.1-2.1,2.4-2.4,4.2-1,8.4-2,12.6-3,.4,0,.8-.4,1.2,0,.3.4.1.8,0,1.2-.2.8-.6,1.4-1.4,1.6-4.6,1.1-9.2,2.2-13.8,3.3-.2,0-.3.1-.4.1"/>
      <path class="st0" d="M355.8,17.2c1.8.1,3.4.6,5.1,1.2.8.2.7.8.3,1.3-.1.1-.3.2-.5.3-2.9,3.7-6.4,1.9-9.9,1.3-1-.2-.4-.8-.2-1.2.8-1.3,3.6-2.9,5.2-2.9"/>
      <path class="st0" d="M317.2,10.3c1-1.5,2.9-1.9,3.8-3.5-3.1-.6-5.6,0-8.1,2.5.2-2.5,1.4-3.9,3.1-4.8,2-1,4.1-1.3,6.4-1.1.7,0,1,.3,1.1,1,.1,3.5-2.6,6.1-6.3,5.9"/>
      <path class="st0" d="M329,18.8c1-1.3,2.2-2.3,3.5-3.3.6-.5,1.3-.4,1.9-.3,1.7.2,3.2,1,4.9,1.4.8.2.4.8.1,1.1-1.8,1.1-3.3,3.1-5.9,2.3-1.5-.5-3.1-.3-4.5-1.2"/>
      <path class="st0" d="M149.5,10.9c1.7.3,3.4.5,5.2.9.9.2.8,1,.4,1.6-.7.9-1.6,1.7-2.4,2.6-.3.4-.7.2-1,.2-1.6-.3-3.2-.6-4.7-1-.6-.1-.8-.3-.6-1.1.5-2,1.7-3.2,3.1-3.2"/>
      <path class="st0" d="M440.2,12.4c1-.9,2.1-1.8,3.1-2.7.3-.3.9-.6.6-1.2-.2-.4-.7-.4-1.2-.4-2.6.1-5.1.4-7.2,2.3.1-1.9,1.9-3.9,3.9-4.3,1.9-.4,3.8-.3,5.7-.3s1,.6.7,1.2c-.9,2.7-2.8,4.5-5.6,5.4"/>
      <path class="st0" d="M184.5,15.1c-.4-.5-.4-1-.4-1.5-.4-2.2-1-4.3-2.8-5.7,0,0-.1-.1-.2-.2-.7-.8-1.5-1.9-.5-2.7,1.1-.9,1.8.3,2.4,1.1,2,2.6,2.2,5.7,1.5,9"/>
      <path class="st0" d="M221.6,18.3c.2,0,.3,0,.5.1-.1.1-.2.3-.3.4s-.3.2-.5.4c-.4-.6,0-.7.3-.9"/>
      <path class="st0" d="M282.5,2.3c.5.8.4,1.6.4,2.3,0,2.5.8,3.6,3.2,4.4,1.6.6,2,1.3,1.3,2.9-.4,1-.8,2.1-1.5,2.9-1.1,1.2-1,2.5-.7,3.8.6,3.8,1.3,7.6,1.9,11.4.5,3.5.5,7.1-.4,10.9.8-.5,1.3-.8,1.8-1.2,6.9-4.4,14.2-8,21.2-12.3.3-.2.6-.3.9-.3,2.8.3,5.5.9,7.8,2.7,2.4,1.9,2.8,4.3,2.1,7.2-.3,1.3-.9,2.5-1.7,3.6-.9,1.1-.4,1.2.7,1.4,4.8.6,9.7.2,14.5-.2,1.2,0,2.4-.2,3.6-.3,1.3,0,1.7-.8,1.6-2-.3-4,1.2-7.6,3.2-11,.8-1.4,2.2-2.8,3.9-2.5,1.7.4,2.3,2.3,2.7,3.9,1,3.5.3,6.9-.6,10.2-.3,1,0,1.4.9,1.7,2.6.7,5.3.9,8,.9s2.5-1.3,2.6-3.3c.1-1.5-.5-2.9-1-4.3-.6-1.6-1.2-3.1-1-4.8.2-1.2.5-2.7,1.6-2.9.9-.2,1.4,1.3,1.8,2.3,1.8,4.8,1.4,9.7-.1,14.5-1.8,5.9-2.3,5-7.1,4.9-3.6,0-7.1-.8-10.3-2.4-.6-.3-1-.3-1.6-.2-6.6,1.6-13.3,2-20.1,1.9-2.3,0-4.5-.8-6.6-1.7s-4-1.1-6.3-.3c-6.7,2.3-13.8,3-20.9,3.3-1.9,0-3.8.2-5.7.2s-1.3.6-1.8,1.2c-.6.9-1.2,1.9-2.2,2.4-.3,0-.6.4-.9,0-.1-.2-.1-.6-.1-.8.2-.7.5-1.3.8-2,.7-1.3.6-1.5-.9-1.8-2.8-.5-5.7-1-8.5-1.9-3.9-1.3-7.5-3.1-9.8-6.7-.3-.4-.9-.8-.5-1.3.4-.6,1-.2,1.5,0,2.6,1.2,5.4,1.4,8.1,1.9,3.8.7,7.6,1.3,11.4,1.9,1.2.2,2.4,0,3.5.3.7.2,1-.5,1.3-1.1.9-2.6.5-5.1.1-7.7-1.2-6.9-2.4-13.7-3.1-20.7,0-.5-.2-.9-.4-1.3-1.8-3.3-1.4-7.2,1.4-10.2M312.5,39.2c1-.3,1.9-.9,2.7-1.5.5-.3.9-.8.3-1.4-1.5-1.7-6.7-3-8.8-2-5.2,2.3-10,5.5-15.2,8.1-.2,0-.5.3-.5.8,7.5-.3,14.6-1.7,21.5-4M345.8,32.6c-.5-.7-1-.8-1.7-.4-1.3.7-2,1.9-2.6,3.1-.6,1.3-.1,2.3.8,3.1.6.5,1.1,1.3,2.1.7,1.2-.7,2.4-1.4,2.6-3-.2-1.1-.5-2.4-1.2-3.5"/>
      <path class="st0" d="M417.8,43.2c-.6.9-1.1,1.6-1.6,2.3-1.2,1.9-3,2.8-5.2,2.7-3.8,0-6.9-1.4-8.7-5.1-.5-.9-1-1-1.7,0-.1.2-.3.4-.4.6-2.6,4-6.4,4.5-10.7,3.8-3.3-.6-5-2.9-6.2-5.7-1.1-2.7-1.4-5.6-1.5-8.6-.8.3-1,.9-1.2,1.5-1,2.3-2.7,3.5-5.3,3.3-1.9-.2-3.8-.5-5.8-.3-1.1,0-1.2-.8-1-1.7,1.4-5.9,4.5-10.4,10.3-12.7.9-.4,1.4-.8,1.6-1.7.2-.9.4-1.8.6-2.6.2-.5.2-1.3.9-1.3s.6.8.7,1.3c.2,1.2.4,2.3.5,3.5.3,3.3.6,6.6.8,9.9.1,1,.3,1.9.5,2.8,2,6.3,8.9,8.5,14.2,4.5.6-.5,1.2-1.1,1.6-1.8.8-1.3,1.5-2.5,2.3-3.7.2-.4.4-.9,1.1-.7.5.2.5.6.5,1.1-.1,5.3,4.7,8.8,9.8,7.3,1.4-.4,2.2-1.5,2.7-2.7.7-1.5,1-3.2,1.5-4.8,1.1-3.3,3.1-4.7,6.5-4.7s1.5.3,1.6,1.4c.1,1.6.3,3.2.2,4.8-.1,1.3.5,2,1.5,2.6,3,2,6.5,2.9,10,3.4,7.4,1.2,14.9.5,22.3-.4,2.4-.3,4.9-.5,7.3-1.3,1.6-.5,3.1-1.3,4.3-2.5.8-.8,1.4-1.7,1.5-2.8.1-1,.6-2,1.2-2.8.5-.7.9-.5,1.3,0,.6,1.1.5,2.2.3,3.3-.3,1.7-.2,3.2,1.1,4.4,1.7,1.6,3.7,2.5,6,2.6.8,0,.8-.6.9-1.1.3-1.2-.1-2.3-.6-3.3-.4-1-.9-1.9-1.2-2.9-.3-1-.2-1.9.2-2.8.6-1.4,1.1-1.5,2.1-.2,1.6,2.2,1.9,4.8,1.8,7.5-.1,2.5-.6,4.9-1,7.3-.4,1.8-1.4,2.5-3.2,2-3.2-.9-5.9-2.6-7.7-5.4-.3-.5-.6-.7-1.1-.2-4.7,4.3-10.7,4.3-16.4,5-6,.8-12.1.9-18.2.7-3.6,0-6.8-1.2-9.8-3.1-.9-.6-1.3-.3-1.6.5-.3.7-.5,1.3-.7,2-.6,1.7-1.5,2-3.1,1.2-2.2-1.1-3.7-2.9-4.9-5-.4-.4-.6-.8-.9-1.4M423.9,37.1c0-.7-.2-1.4-1.1-1.3s-2,0-2.3,1.3c-.4,2,2.6,5.9,5,6.3-1.1-2.1-1.5-4.2-1.6-6.3M376.8,31.3c1.8.5,3.2-.3,4.6-1.3.7-.5.6-1.3.2-1.9-.5-.8-.8.1-1.2.2-.7.2-1.4.4-2.2.6-1.2.4-2.4.6-3.4,1.8.7.2,1.3.5,2,.6"/>
      <path class="st0" d="M190.1,42.9c-.4.7-.8,1.3-1.1,1.8-3.4,6.1-9.6,3.9-12.2.2-1.9-2.7-2.2-5.8-2.5-8.9-.6-7.6-.5-15.2-2.5-22.6-.1-.4-.2-.8-.3-1.2-1-2.5-.9-4.9.1-7.3.1-.4,0-1,.5-1.1.6,0,.7.6.8,1,.7,2.6,1.4,5.1,1.8,7.8.9,5.6,1.1,11.2,1.7,16.9.3,2.4.5,4.8.9,7.2.6,3.7,4.4,6.1,7.9,5.1,2-.6,3-2.1,3.6-4.1.6-2.2.6-4.6,1.9-6.7,1.5-2.4,4-3.8,6.7-3.2.6.1.5.4.5.8,0,.8-.1,1.6,0,2.4.1,4.2,2.5,7.5,6.5,8.8,7,2.3,14.2,2.6,21.6,2.1,1.8,0,3.7-.4,5.5-.6.9,0,.9-.4.6-1.2-1.4-2.9-2.7-5.9-2.8-9.2-.2-3.5,1.1-6.5,3.2-9.2,1.5-1.8,3.5-2.5,6-2.1,3.6.6,6.5,2.3,9.4,4.9-1.9.1-3.4-.4-4.9-.4-3.7.1-7.3.5-10.3,2.9-.5.4-.9.8-.8,1.6.6,4,2.4,7.2,5.7,9.6,2.4,1.7,4.9,1.1,7.4.7,4.2-.7,7.9-2.5,11.1-5.6.5,2.2-.5,3.7-1.8,5.1-2.7,3-6.1,5-10,6-8,2.2-16.2,3-24.3,3.4-5.1.2-10.3,0-15.2-1.6-1.5-.4-3-1-4.3-1.8-.7-.4-1-.3-1.2.4-.3.9-.6,1.9-.9,2.8-.2.7-.5.9-1.2.5-2.8-1.2-5.4-2.5-7.1-5.2M195.1,34.8c0-.5.1-1.2-.8-.9-.9.3-2.4.3-2,1.4.9,2.3,2.1,4.5,4.5,5.8-.9-2.1-1.5-4.2-1.7-6.3"/>
      <path class="st0" d="M221.6,18.3c1.4-1.6,2.7-3.2,4.1-4.8.7-.8.7-1.4-.2-2-1.5-1-1.4-2.3-1-3.8.6-1.9,1.7-3.3,3.4-4.2,1.5-.8,2.6-.3,2.9,1.4.2,1.3-.2,2.4-.7,3.6-.6,1.3-1.2,2.6-.7,4.2.4,1.1-.4,1.6-1.5,1.1-.6-.2-.8.2-1.1.4-1.6,1.3-3.2,2.7-4.8,4.1-.2.1-.3.1-.4,0M228,6.7c-.7,0-1.4.3-1.7,1.1-.1.5,1.1,1.8,1.6,1.6.8-.2.6-1,.9-1.6,0-.5,0-1.2-.8-1.1"/>
      <path class="st0" d="M152.9,74.1c1.4,0,2.6.2,3.6.6s1.8.9,2.4,1.6c.6.7,1.1,1.4,1.4,2.3.3.9.4,1.8.4,2.7s-.1,1.8-.4,2.7c-.3.9-.7,1.6-1.4,2.3-.6.7-1.4,1.2-2.4,1.6s-2.2.6-3.6.6h-5.2v8.1h-4.9v-22.5h10.1,0ZM151.5,84.7c.6,0,1.1,0,1.6,0s1-.2,1.4-.5c.4-.2.7-.6,1-1,.2-.4.4-1,.4-1.7s-.1-1.3-.4-1.7c-.2-.4-.6-.8-1-1s-.9-.4-1.4-.5-1.1,0-1.6,0h-3.8v6.7h3.8Z"/>
      <path class="st0" d="M168,92.7c.7.6,1.6,1,2.9,1s1.7-.2,2.3-.7,1-.9,1.2-1.4h3.9c-.6,1.9-1.6,3.3-2.9,4.2-1.3.8-2.9,1.3-4.7,1.3s-2.4-.2-3.5-.6c-1-.4-1.9-1-2.6-1.7-.7-.8-1.3-1.7-1.6-2.7-.4-1-.6-2.2-.6-3.5s.2-2.4.6-3.4c.4-1,1-2,1.7-2.7.7-.8,1.6-1.4,2.6-1.8s2.1-.7,3.4-.7,2.6.3,3.6.8,1.9,1.3,2.5,2.2c.7.9,1.1,1.9,1.4,3.1.3,1.2.4,2.4.3,3.6h-11.7c.2,1.3.6,2.3,1.2,3M173.1,84.1c-.5-.6-1.3-.9-2.4-.9s-1.3,0-1.8.4c-.5.2-.8.5-1.1.9s-.5.7-.6,1.1-.2.8-.2,1.1h7.3c-.3-1.1-.7-2-1.2-2.6"/>
      <path class="st0" d="M190.2,80.3v3h-3.3v8.1c0,.8.1,1.3.4,1.5.3.3.8.4,1.5.4h.7c.2,0,.5,0,.7,0v3.5c-.4,0-.8,0-1.3,0h-1.4c-.7,0-1.3,0-2,0-.6,0-1.2-.3-1.6-.6-.5-.3-.8-.7-1.1-1.2s-.4-1.2-.4-2v-9.6h-2.7v-3h2.7v-4.9h4.5v4.9h3.3Z"/>
      <path class="st0" d="M196.6,80.3v3h.1c.2-.5.5-1,.9-1.4s.8-.8,1.2-1.1c.5-.3,1-.5,1.5-.7s1.1-.3,1.6-.3.6,0,1,.2v4.1c-.2,0-.5,0-.8,0h-.8c-.8,0-1.5,0-2.1.4s-1,.6-1.4,1.1c-.3.5-.6,1-.7,1.7-.1.6-.2,1.3-.2,2v7.3h-4.5v-16.3h4.2Z"/>
      <path class="st0" d="M204.1,84.9c.4-1.1,1-2,1.7-2.7s1.6-1.3,2.6-1.7c1-.4,2.2-.6,3.5-.6s2.4.2,3.5.6c1,.4,1.9,1,2.7,1.7.7.7,1.3,1.6,1.7,2.7s.6,2.2.6,3.5-.2,2.5-.6,3.5c-.4,1-1,1.9-1.7,2.7-.7.7-1.6,1.3-2.7,1.7-1,.4-2.2.6-3.5.6s-2.4-.2-3.5-.6c-1-.4-1.9-1-2.6-1.7-.7-.7-1.3-1.6-1.7-2.7-.4-1-.6-2.2-.6-3.5.1-1.2.3-2.4.6-3.5M208.2,90.4c.1.6.3,1.2.6,1.7s.7.9,1.2,1.2c.5.3,1.1.4,1.9.4s1.4,0,1.9-.4.9-.7,1.2-1.2.5-1,.6-1.7c.1-.6.2-1.3.2-1.9s-.1-1.3-.2-1.9c-.1-.6-.3-1.2-.6-1.7s-.7-.9-1.2-1.2c-.5-.3-1.1-.5-1.9-.5s-1.4.2-1.9.5-.9.7-1.2,1.2-.5,1-.6,1.7c-.1.6-.2,1.3-.2,1.9s.1,1.3.2,1.9"/>
      <rect class="st0" x="223.4" y="74.1" width="4.5" height="22.5"/>
      <path class="st0" d="M236.2,92.7c.7.6,1.6,1,2.9,1s1.7-.2,2.3-.7,1-.9,1.2-1.4h3.9c-.6,1.9-1.6,3.3-2.9,4.2-1.3.8-2.9,1.3-4.7,1.3s-2.4-.2-3.5-.6c-1-.4-1.9-1-2.6-1.7-.7-.8-1.3-1.7-1.6-2.7-.4-1-.6-2.2-.6-3.5s.2-2.4.6-3.4c.4-1,1-2,1.7-2.7.7-.8,1.6-1.4,2.6-1.8s2.1-.7,3.4-.7,2.6.3,3.6.8,1.9,1.3,2.5,2.2c.7.9,1.1,1.9,1.4,3.1s.4,2.4.3,3.6h-11.7c.1,1.3.5,2.3,1.2,3M241.2,84.1c-.5-.6-1.3-.9-2.4-.9s-1.3,0-1.8.4c-.5.2-.8.5-1.1.9s-.5.7-.6,1.1-.2.8-.2,1.1h7.3c-.3-1.1-.6-2-1.2-2.6"/>
      <path class="st0" d="M260.5,96.6v-2.3h-.1c-.6.9-1.3,1.6-2.2,2-.9.4-1.8.6-2.8.6s-2.2-.2-2.9-.5c-.8-.3-1.4-.8-1.8-1.3-.4-.6-.7-1.3-.9-2.1-.2-.8-.3-1.7-.3-2.8v-10h4.5v9.2c0,1.3.2,2.3.6,3s1.2,1,2.2,1,2.1-.4,2.6-1.1.8-1.9.8-3.6v-8.5h4.5v16.3h-4.2q0,0,0,.1Z"/>
      <path class="st0" d="M272.4,80.3v2.2h.1c.6-.8,1.3-1.5,2.1-2,.8-.5,1.8-.7,2.8-.7s2,.2,2.8.6,1.5,1.1,1.9,2.1c.5-.7,1.1-1.3,2-1.9.8-.5,1.8-.8,2.9-.8s1.7,0,2.4.3c.7.2,1.4.5,1.9,1s.9,1.1,1.2,1.8c.3.7.4,1.6.4,2.7v10.9h-4.5v-9.2c0-.5,0-1.1-.1-1.5,0-.5-.2-.9-.3-1.3-.2-.4-.5-.6-.8-.9-.4-.2-.9-.3-1.5-.3s-1.1,0-1.5.4c-.4.2-.7.6-.9.9-.2.4-.4.8-.4,1.3-.1.5-.1,1-.1,1.5v9.1h-4.5v-10.5c0-.5-.1-.9-.3-1.3-.2-.4-.4-.7-.8-1-.4-.2-.9-.4-1.6-.4s-.5,0-.8,0c-.3,0-.7.3-1,.5-.3.3-.6.6-.8,1.1-.2.5-.3,1.1-.3,1.9v9.4h-4.5v-16.3h4.2v.3h0Z"/>
      <path class="st0" d="M315.5,74.1c1.4,0,2.8.2,4,.7s2.3,1.2,3.2,2.1c.9.9,1.6,2.1,2.1,3.5s.8,3,.8,4.9-.2,3.1-.6,4.5-1.1,2.6-1.9,3.6-1.9,1.8-3.2,2.4c-1.3.6-2.8.9-4.5.9h-9.7v-22.5h9.8q0,0,0,0ZM315.2,92.4c.7,0,1.4,0,2.1-.3.7-.2,1.3-.6,1.8-1.2.5-.5.9-1.2,1.3-2.1.3-.9.5-1.9.5-3.1s-.1-2.2-.3-3.1c-.2-.9-.6-1.7-1.1-2.3-.5-.6-1.2-1.2-2-1.5s-1.9-.5-3.1-.5h-3.5v14.2h4.3q0,0,0,0Z"/>
      <path class="st0" d="M333.4,92.7c.7.6,1.6,1,2.9,1s1.7-.2,2.3-.7c.6-.5,1-.9,1.2-1.4h3.9c-.6,1.9-1.6,3.3-2.9,4.2-1.3.8-2.9,1.3-4.7,1.3s-2.4-.2-3.5-.6c-1-.4-1.9-1-2.6-1.7-.7-.8-1.3-1.7-1.6-2.7-.4-1-.6-2.2-.6-3.5s.2-2.4.6-3.4,1-2,1.7-2.7c.7-.8,1.6-1.4,2.6-1.8s2.1-.7,3.4-.7,2.6.3,3.6.8,1.9,1.3,2.5,2.2c.7.9,1.1,1.9,1.4,3.1s.4,2.4.3,3.6h-11.6c.1,1.3.5,2.3,1.1,3M338.5,84.1c-.5-.6-1.3-.9-2.4-.9s-1.3,0-1.8.4c-.5.2-.8.5-1.1.9-.3.4-.5.7-.6,1.1s-.2.8-.2,1.1h7.3c-.3-1.1-.7-2-1.2-2.6"/>
      <polygon class="st0" points="350.7 96.6 345.2 80.3 349.9 80.3 353.3 91.4 353.4 91.4 356.8 80.3 361.2 80.3 355.7 96.6 350.7 96.6"/>
      <path class="st0" d="M367.9,92.7c.7.6,1.6,1,2.9,1s1.7-.2,2.3-.7c.6-.5,1-.9,1.2-1.4h3.9c-.6,1.9-1.6,3.3-2.9,4.2-1.3.8-2.9,1.3-4.7,1.3s-2.4-.2-3.5-.6c-1-.4-1.9-1-2.6-1.7-.7-.8-1.3-1.7-1.6-2.7-.4-1-.6-2.2-.6-3.5s.2-2.4.6-3.4,1-2,1.7-2.7c.7-.8,1.6-1.4,2.6-1.8s2.1-.7,3.4-.7,2.6.3,3.6.8,1.9,1.3,2.5,2.2c.7.9,1.1,1.9,1.4,3.1s.4,2.4.3,3.6h-11.7c.1,1.3.5,2.3,1.2,3M372.9,84.1c-.5-.6-1.3-.9-2.4-.9s-1.3,0-1.8.4c-.5.2-.8.5-1.1.9-.3.4-.5.7-.6,1.1s-.2.8-.2,1.1h7.3c-.3-1.1-.7-2-1.2-2.6"/>
      <rect class="st0" x="381.3" y="74.1" width="4.5" height="22.5"/>
      <path class="st0" d="M389.3,84.9c.4-1.1,1-2,1.7-2.7s1.6-1.3,2.6-1.7c1-.4,2.2-.6,3.5-.6s2.4.2,3.5.6c1,.4,1.9,1,2.7,1.7.7.7,1.3,1.6,1.7,2.7.4,1.1.6,2.2.6,3.5s-.2,2.5-.6,3.5-1,1.9-1.7,2.7c-.7.7-1.6,1.3-2.7,1.7-1,.4-2.2.6-3.5.6s-2.4-.2-3.5-.6c-1-.4-1.9-1-2.6-1.7s-1.3-1.6-1.7-2.7c-.4-1-.6-2.2-.6-3.5.1-1.2.3-2.4.6-3.5M393.4,90.4c.1.6.3,1.2.6,1.7.3.5.7.9,1.2,1.2.5.3,1.1.4,1.9.4s1.4,0,1.9-.4.9-.7,1.2-1.2c.3-.5.5-1,.6-1.7.1-.6.2-1.3.2-1.9s-.1-1.3-.2-1.9-.3-1.2-.6-1.7c-.3-.5-.7-.9-1.2-1.2-.5-.3-1.1-.5-1.9-.5s-1.4.2-1.9.5-.9.7-1.2,1.2c-.3.5-.5,1-.6,1.7-.1.6-.2,1.3-.2,1.9s.1,1.3.2,1.9"/>
      <path class="st0" d="M412.7,80.3v2.1h.1c.5-.9,1.2-1.5,2.1-1.9.8-.4,1.8-.6,2.8-.6s2.4.2,3.3.7,1.7,1.1,2.3,1.9c.6.8,1.1,1.7,1.4,2.8.3,1.1.4,2.2.4,3.3s-.2,2.1-.4,3.1c-.3,1-.7,1.9-1.3,2.7-.6.8-1.3,1.4-2.2,1.9-.9.5-1.9.7-3.1.7s-1.9-.2-2.8-.6c-.8-.4-1.5-1-2.1-1.8h-.1v7.7h-4.5v-22h4.1ZM418.5,93.2c.5-.3.9-.7,1.2-1.2.3-.5.5-1,.6-1.6s.2-1.3.2-1.9-.1-1.3-.2-1.9-.4-1.2-.7-1.7c-.3-.5-.7-.9-1.2-1.2-.5-.3-1.1-.5-1.8-.5s-1.4.2-1.8.5c-.5.3-.9.7-1.2,1.2-.3.5-.5,1-.6,1.7-.1.6-.2,1.3-.2,1.9s.1,1.3.2,1.9.4,1.2.7,1.6c.3.5.7.9,1.2,1.2.5.3,1.1.4,1.8.4.7,0,1.3,0,1.8-.4"/>
      <path class="st0" d="M432,80.3v2.2h.1c.6-.8,1.3-1.5,2.1-2,.8-.5,1.8-.7,2.8-.7s2,.2,2.8.6,1.5,1.1,1.9,2.1c.5-.7,1.1-1.3,2-1.9.8-.5,1.8-.8,2.9-.8s1.7,0,2.4.3c.7.2,1.4.5,1.9,1s.9,1.1,1.2,1.8c.3.7.4,1.6.4,2.7v10.9h-4.5v-9.2c0-.5,0-1.1-.1-1.5,0-.5-.2-.9-.3-1.3-.2-.4-.5-.6-.8-.9-.4-.2-.9-.3-1.5-.3s-1.1,0-1.5.4c-.4.2-.7.6-.9.9-.2.4-.4.8-.4,1.3-.1.5-.1,1-.1,1.5v9.1h-4.5v-10.5c0-.5-.1-.9-.3-1.3-.2-.4-.4-.7-.8-1-.4-.2-.9-.4-1.6-.4s-.5,0-.8,0c-.3,0-.7.3-1,.5-.3.3-.6.6-.8,1.1-.2.5-.3,1.1-.3,1.9v9.4h-4.5v-16.3h4.2v.3h0Z"/>
      <path class="st0" d="M461,92.7c.7.6,1.6,1,2.9,1s1.7-.2,2.3-.7c.6-.5,1-.9,1.2-1.4h3.9c-.6,1.9-1.6,3.3-2.9,4.2-1.3.8-2.9,1.3-4.7,1.3s-2.4-.2-3.5-.6c-1-.4-1.9-1-2.6-1.7-.7-.8-1.3-1.7-1.6-2.7-.4-1-.6-2.2-.6-3.5s.2-2.4.6-3.4,1-2,1.7-2.7c.7-.8,1.6-1.4,2.6-1.8s2.1-.7,3.4-.7,2.6.3,3.6.8,1.9,1.3,2.5,2.2c.7.9,1.1,1.9,1.4,3.1s.4,2.4.3,3.6h-11.7c.1,1.3.5,2.3,1.2,3M466,84.1c-.5-.6-1.3-.9-2.4-.9s-1.3,0-1.8.4c-.5.2-.8.5-1.1.9-.3.4-.5.7-.6,1.1s-.2.8-.2,1.1h7.3c-.3-1.1-.6-2-1.2-2.6"/>
      <path class="st0" d="M478.5,80.3v2.3h.1c.6-.9,1.3-1.6,2.2-2.1.9-.4,1.8-.6,2.8-.6s2.2.2,2.9.5c.8.3,1.4.8,1.8,1.4s.7,1.3.9,2.1c.2.8.3,1.7.3,2.8v10h-4.5v-9.2c0-1.3-.2-2.3-.6-3s-1.2-1-2.2-1-2.1.4-2.6,1.1-.8,1.9-.8,3.6v8.5h-4.5v-16.3h4.2q0,0,0-.1Z"/>
      <path class="st0" d="M501.8,80.3v3h-3.3v8.1c0,.8.1,1.3.4,1.5.2.3.8.4,1.5.4h.7c.2,0,.4,0,.7,0v3.5c-.4,0-.8,0-1.3,0h-1.4c-.7,0-1.3,0-2,0-.6,0-1.2-.3-1.6-.6-.5-.3-.8-.7-1.1-1.2s-.4-1.2-.4-2v-9.6h-2.7v-3h2.7v-4.9h4.5v4.9h3.3,0Z"/>
      <path class="st0" d="M513,80.8c.5-1.4,1.2-2.7,2.2-3.8.9-1.1,2.1-1.9,3.5-2.5s2.9-.9,4.6-.9,3.3.3,4.7.9,2.5,1.4,3.5,2.5c.9,1.1,1.7,2.3,2.2,3.8.5,1.4.8,3,.8,4.7s-.3,3.2-.8,4.6-1.2,2.6-2.2,3.7c-.9,1-2.1,1.9-3.5,2.5s-2.9.9-4.7.9-3.3-.3-4.6-.9c-1.4-.6-2.5-1.4-3.5-2.5-.9-1-1.7-2.3-2.2-3.7-.5-1.4-.8-2.9-.8-4.6s.3-3.3.8-4.7M517.5,88.2c.2.9.6,1.7,1.1,2.4.5.7,1.1,1.3,1.9,1.7s1.7.6,2.8.6,2.1-.2,2.8-.6c.8-.4,1.4-1,1.9-1.7s.8-1.5,1.1-2.4c.2-.9.3-1.8.3-2.8s0-1.9-.3-2.9c-.2-.9-.6-1.7-1.1-2.5-.5-.7-1.1-1.3-1.9-1.7s-1.7-.6-2.8-.6-2.1.2-2.8.6c-.8.4-1.4,1-1.9,1.7s-.8,1.5-1.1,2.5c-.2.9-.3,1.9-.3,2.9s0,1.9.3,2.8"/>
      <path class="st0" d="M541.6,80.3v2.2h0c.6-.8,1.3-1.5,2.1-2s1.8-.7,2.8-.7,2,.2,2.8.6,1.5,1.1,1.9,2.1c.5-.7,1.1-1.3,2-1.9.8-.5,1.8-.8,2.9-.8s1.7,0,2.4.3c.7.2,1.4.5,1.9,1s.9,1.1,1.2,1.8c.3.7.4,1.6.4,2.7v10.9h-4.5v-9.2c0-.5,0-1.1,0-1.5,0-.5-.2-.9-.3-1.3-.2-.4-.5-.6-.8-.9-.4-.2-.9-.3-1.5-.3s-1.1,0-1.5.4c-.4.2-.7.6-.9.9-.2.4-.4.8-.4,1.3,0,.5,0,1,0,1.5v9.1h-4.5v-10.5c0-.5,0-.9-.3-1.3s-.4-.7-.8-1c-.4-.2-.9-.4-1.6-.4s-.5,0-.8,0c-.3,0-.7.3-1,.5-.3.3-.6.6-.8,1.1s-.3,1.1-.3,1.9v9.4h-4.6v-16.3h4.3v.3h0Z"/>
      <path class="st0" d="M565.5,85.3c0-1,.3-1.9.8-2.6s1-1.3,1.8-1.7c.7-.4,1.5-.7,2.4-.9.9-.2,1.8-.3,2.7-.3s1.6,0,2.5.2c.8,0,1.6.3,2.3.7.7.3,1.3.8,1.7,1.4s.7,1.4.7,2.4v8.5c0,.7,0,1.4,0,2.1s.2,1.2.4,1.5h-4.6c0-.3-.2-.5-.2-.8,0-.3,0-.5,0-.8-.7.7-1.6,1.2-2.5,1.5-1,.3-1.9.4-3,.4s-1.5,0-2.2-.3c-.7-.2-1.3-.5-1.8-.9s-.9-.9-1.2-1.5-.4-1.3-.4-2.2.2-1.7.5-2.3c.3-.6.7-1.1,1.3-1.4.5-.4,1.1-.6,1.8-.8.7-.2,1.3-.3,2-.4s1.3-.2,2-.3c.6,0,1.2-.2,1.7-.3.5,0,.9-.3,1.2-.6.3-.2.4-.6.4-1.1s0-.9-.2-1.1c-.2-.3-.4-.5-.6-.7-.3-.2-.6-.3-.9-.3-.3,0-.7,0-1.1,0-.9,0-1.6.2-2.1.6s-.8,1-.9,1.9h-4.5v.2h0ZM575.8,88.6c-.2.2-.4.3-.7.4s-.6.2-.9.2c-.3,0-.7,0-1,.2-.4,0-.7,0-1.1.2-.3,0-.7,0-1,.3-.3,0-.6.2-.9.4-.2.2-.4.4-.6.7,0,.3-.2.6-.2,1s0,.7.2,1c0,.3.3.5.6.6.3.2.5.3.9.3s.7,0,1,0c.9,0,1.6,0,2-.4.5-.3.8-.6,1.1-1,.2-.4.4-.8.4-1.2,0-.4,0-.8,0-1v-1.8h.1Z"/>
      <path class="st0" d="M588,80.3v2.3h0c.6-.9,1.3-1.6,2.2-2.1.9-.4,1.8-.6,2.8-.6s2.2.2,2.9.5c.8.3,1.4.8,1.8,1.4.4.6.7,1.3.9,2.1.2.8.3,1.7.3,2.8v10h-4.5v-9.2c0-1.3-.2-2.3-.6-3-.4-.7-1.2-1-2.2-1s-2.1.4-2.6,1.1-.8,1.9-.8,3.6v8.5h-4.5v-16.3h4.2q0,0,0-.1Z"/>
    </g>
  </g>
</svg>