<?xml version="1.0" encoding="UTF-8"?>
<svg id="Layer_2" xmlns="http://www.w3.org/2000/svg" version="1.1" viewBox="0 0 669.5 177.5">
  <!-- Generator: Adobe Illustrator 29.5.1, SVG Export Plug-In . SVG Version: 2.1.0 Build 141)  -->
  <defs>
    <style>
      .st0 {
        fill: #fff;
      }
    </style>
  </defs>
  <path class="st0" d="M534.7,79.8c-46.9,1.5-81.2,14.7-81.2,14.7-26.6,11.6-57.7,10-72.6,8.3v12.7c.9.6,2,1.2,3.2,2,12.7,7.8,38.7,23.4,46.5,24.3,0,0-35.7-.5-49.6.8v13.3c46.8-10.3,170.2,18.9,170.2,18.9,62,9.5,105.3-8.7,118.2-15.2v-10.9c-16.3,9-58.7,15.9-58.7,15.9-51.1,6.4-94.8-9-98-10.2,18,2.6,79.1-14.4,79.1-14.4,38-9.2,68.5-5.6,77.7-4.1v-18.1c-42.3-26.1-88.3-39.4-134.7-37.9h0ZM561.5,139.7s-86.3,19.5-144.4-12.4c0,0-7-3.5-15-7.9,27.4.1,50.9-10.8,50.9-10.8,69.6-34.1,158.5-1.4,199.1,17.8-19.5.1-51.1,2.5-90.6,13.3Z"/>
  <path class="st0" d="M435.4,164.7c-7.2-.5-14.2-.9-20.7-.9v10.8l20.7,2.5v-12.5h0Z"/>
  <path class="st0" d="M557.8,21.6c-11,1.6-6.8,1.2-22.1,1.9v11.6c7,.9,14.4,1.4,22.1,1.5,0,0,0-15,0-15Z"/>
  <path class="st0" d="M561.5,21.6v14.9c8.4-.2,17-.9,25.6-2.6v-15.1c-8,1.7-16.6,2.7-25.6,2.8h0Z"/>
  <path class="st0" d="M570.6.5c-3.5.3-7,.4-10.6.4s-5.1,0-7.6-.2v15c2.5.1,7.6,1.2,18.2-2.8V.5h0Z"/>
  <path class="st0" d="M669.5,15V0h0c-11.2,11.2-30.1,24.4-30.1,24.4-34.6,27.5-77.7,28.5-109.6,23.7-19.2-2.9-37.9-8.8-55.6-16.8-42.1-19.1-74.9-23.2-93.2-23.7v13.9c15.3-1.1,41.1-.1,71.2,13.4,0,0,65.3,32.9,84.3,29.4,0,0-48.9,25.9-105.4,11.2,0,0-29.7-9.4-50.1-21.7v19c15,10.1,39.4,22.8,71.4,25.6,18,1.6,36.1-.4,53.7-5.4,31.6-9,119.3-31.6,163.4-20.3v-21.3c-17.4-2.2-45-3.2-45-3.2,7.3-.9,28.4-18.6,42.6-31.1,0,0,1.1-1,2.4-2h0Z"/>
  <path class="st0" d="M667.6,85.9c-5-1.3-10.7-2.1-16.8-2.5v11c5.6.4,18.7,7.2,18.7,7.2v-15.3l-1.9-.5h0Z"/>
  <path class="st0" d="M192.6,45.2c-5.1,1.4-7.7,1.5-9,1.4v48.4h-13.6v-23.6c-4.8,1.3-7.5,1.5-9,1.5v22.1h-10.4v-23.3c-4.8,1.3-7.5,1.4-9,1.4v21.8h-10v-23.3c-4.8,1.2-7.5,1.4-9,1.4v21.8h-13.1v-23.3c-4.8,1.2-7.5,1.4-9,1.4v21.8h-13.4v-49.9c-4.9,1.4-7.6,1.5-9,1.5v57.4h114.6v-58.9h0Z"/>
  <path class="st0" d="M211.8,45.3c-5.1,1.4-7.7,1.5-9,1.4v57.4h9s0-58.8,0-58.8Z"/>
  <path class="st0" d="M68.2,71.9c-4.9,1.3-7.6,1.4-9,1.4v21.8c-24,.7-32.9.7-57,0h-.7c0,1.5-.2,4.2-1.5,9h68.2v-32.2h0Z"/>
  <path class="st0" d="M302,104.4v-13.4l-9.6-9.6h-38.5l22.1-22.1c-3.2-1.8-4.8-3.2-5.7-4l-26.1,26.1-3.8,3.8,3.2,3.1h46l5.5,5.5v3.7h-60.1v-15.8c-3.5.9-5.6,1.2-6.9,1.2v18.7c0,5.8-3.5,11.1-8.9,13.2,1.7,3.1,2.4,5.1,2.7,6.3,6.9-2.9,11.8-9.4,12.8-16.8h67.2,0Z"/>
  <path class="st0" d="M334.8,104.4c7.3,0,13.2-5.9,13.2-13.2s-5.9-13.2-13.2-13.2-13.2,5.9-13.2,13.2.6,4.5,1.6,6.4h-7v-15.7c-3.5.9-5.6,1.2-6.9,1.2v18.7c0,5.8-3.5,11.1-8.9,13.2,1.7,3.1,2.4,5.1,2.7,6.3,7-2.9,11.8-9.4,12.8-16.8h18.8,0ZM328.5,91.1c0-3.5,2.9-6.4,6.4-6.4s6.4,2.8,6.4,6.4-2.9,6.4-6.4,6.4-6.4-2.8-6.4-6.4Z"/>
  <path class="st0" d="M230.2,67.1l-5.3,5.3c.9.6,1.9,1.5,3.1,2.6,1.2,1.1,2.2,2.2,2.9,3.3l5.4-5.3c-.7-1.2-1.7-2.3-2.9-3.4-1.2-1.1-2.3-2-3.2-2.6Z"/>
  <path class="st0" d="M145.4,53.6l6.5-6.4c-.9-1.4-2-2.8-3.5-4.1-1.4-1.3-2.7-2.4-3.9-3.1l-6.4,6.4c1,.8,2.3,1.8,3.7,3.2,1.5,1.4,2.6,2.7,3.5,4h0Z"/>
  <path class="st0" d="M138.5,64.8l6.5-6.4c-.9-1.4-2-2.8-3.5-4.1-1.4-1.3-2.7-2.4-3.9-3.1l-6.4,6.4c1,.8,2.3,1.8,3.7,3.2,1.5,1.4,2.6,2.7,3.5,4h0Z"/>
  <path class="st0" d="M94.9,113.9c1,.8,2.3,1.8,3.7,3.2,1.5,1.4,2.6,2.7,3.5,4l6.5-6.4c-.9-1.4-2-2.8-3.5-4.1-1.4-1.3-2.7-2.4-3.9-3.1l-6.3,6.4h0Z"/>
  <path class="st0" d="M27.2,113.9c1,.8,2.3,1.8,3.7,3.2,1.5,1.4,2.6,2.7,3.5,4l6.5-6.4c-.9-1.4-2-2.8-3.5-4.1-1.4-1.3-2.7-2.4-3.9-3.1l-6.4,6.4h0Z"/>
  <path class="st0" d="M150.3,60.8c1.5,1.4,2.6,2.7,3.5,4l6.5-6.4c-.9-1.4-2-2.8-3.5-4.1-1.4-1.3-2.7-2.4-3.9-3.1l-6.4,6.4c1,.8,2.3,1.8,3.7,3.2h0Z"/>
  <path class="st0" d="M20.3,134.2l-6.3,11.3h-.2l-6.6-11.4h0c-.9,0-1.8-.1-2.8-.1-1.4,0-2.9.1-4.3.2l10.6,17.2v5.9h6.1v-5.9l10.7-17.3c-.9,0-1.9-.1-2.8-.1-1.5,0-2.9.1-4.4.2h0Z"/>
  <path class="st0" d="M52.3,136.7c-2.6-2.3-5.7-3.5-9.3-3.5s-6.7,1.2-9.3,3.5c-2.6,2.3-3.9,5.3-3.9,8.8s1.3,6.5,3.9,8.8c2.6,2.3,5.7,3.5,9.3,3.5s6.7-1.1,9.3-3.5c2.6-2.3,3.9-5.3,3.9-8.8s-1.3-6.5-3.9-8.8ZM48,150.6c-1.3,1.3-3,1.9-5,1.9s-3.7-.6-5-1.9c-1.3-1.3-2-3-2-5.1s.7-3.8,2-5.1c1.3-1.3,3-1.9,5-1.9s3.6.6,5,1.9c1.3,1.3,2,3,2,5.1s-.7,3.8-2,5.1Z"/>
  <path class="st0" d="M80.3,134.1v11.6c0,4.4-1.9,6.6-5.8,6.6s-5.9-2.2-5.9-6.6v-11.7c-.6,0-1.1,0-1.7,0-1.6,0-3.1.1-4.6.2v11.5c0,3.8,1.1,6.8,3.2,8.9,2.2,2.1,5.1,3.2,8.9,3.2s6.7-1,8.9-3.2c2.2-2.1,3.2-5.1,3.2-8.9v-11.6c-.9,0-1.7-.1-2.6-.1s-2.5,0-3.7.2h0Z"/>
  <polygon class="st0" points="92.1 139.4 101.2 139.4 101.2 157.2 107.6 157.2 107.6 139.4 116.7 139.4 116.7 133.7 92.1 133.7 92.1 139.4"/>
  <path class="st0" d="M142.1,134.1v8.2h-13.4v-8.2c-.7,0-1.4-.1-2.2-.1-1.4,0-2.7.1-4.1.2v23.1h6.2v-9.3h13.4v9.3h6.3v-23.1c-.8,0-1.7-.1-2.5-.1-1.3,0-2.6,0-3.8.2h0Z"/>
  <path class="st0" d="M183,154c-2.6,0-4.7-.8-6.3-2.4-1.6-1.6-2.4-3.6-2.4-6.1s.8-4.6,2.4-6.1c1.6-1.5,3.7-2.3,6.3-2.3s6.4,1.3,8.4,4l3.4-2c-2.5-3.9-6.4-5.9-11.6-5.9s-6.9,1.1-9.4,3.4c-2.5,2.2-3.7,5.2-3.7,8.9s1.2,6.7,3.7,9c2.4,2.2,5.6,3.4,9.4,3.4s9.1-2,11.7-5.9l-3.4-2c-2,2.7-4.8,4-8.4,4h0Z"/>
  <path class="st0" d="M205.5,153.3v-6.1h14.8c0-.6,0-1.1,0-1.7s0-1.4-.1-2.2h-14.8v-5.6h16.4c0-.7.1-1.4.1-2.1s0-1.2,0-1.8h-20.8v23.5h21.4c0-.6.1-1.2.1-1.9s0-1.4-.1-2.1h-17Z"/>
  <path class="st0" d="M249.5,134.1v17.1l-15.6-17.5h-4.3v23.5h4.3v-17.5l15.6,17.5h4.4v-23.3c-.3,0-.7,0-1,0-1.1,0-2.2,0-3.3.1h0Z"/>
  <path class="st0" d="M260,133.7c0,.3,0,.6,0,.9,0,1,.1,2.1.2,3.1h9.6v19.6h4.3v-19.6h9.6c0-.7.1-1.4.1-2.1s0-1.2,0-1.8h-23.8,0Z"/>
  <path class="st0" d="M294.6,153.3v-6.1h17c0-.6,0-1.1,0-1.7s0-1.4,0-2.2h-17v-5.6h18.6c0-.7.1-1.4.1-2.1s0-1.2,0-1.8h-23v23.5h23.5c0-.6,0-1.2,0-1.9s0-1.4,0-2.1h-19.2,0Z"/>
  <path class="st0" d="M346.3,147.6c.9-1.4,1.3-2.9,1.3-4.8,0-2.7-.9-4.9-2.7-6.6-1.8-1.7-4.1-2.5-6.8-2.5h-17.1v23.5h4.3v-5.4h13.5l3,5.4h4.7l-3.7-6.5c1.5-.7,2.7-1.7,3.6-3.1h0ZM341.9,146.5c-1,.9-2.3,1.3-4,1.3h-12.6v-10.2h12.6c1.6,0,3,.5,4,1.4,1,.9,1.5,2.2,1.5,3.8s-.5,2.8-1.5,3.7Z"/>
</svg>